<svg height="317.218" viewBox="0 0 967.24 317.218" width="967.24" xmlns="http://www.w3.org/2000/svg"><switch><g fill="#fff"><path d="M138.502 0H31.056C2.07 0-.818 23.092.154 28.473c1.136 2.586 2.723 3.695 4.36 3.695 4.588 0 3.645-5.046 24.527-5.967h109.461c74.567 0 124.614 63.444 124.614 132.625 0 69.939-49.089 132.201-125.042 132.201H42.218a8.99 8.99 0 0 1-8.989-8.991l-.014.022-.123-130.159c0-39.377 15.014-56.25 45.079-54.276 15.016.986 25.858-.952 33.847-11.506 16.237 26.836-12.206 44.473-28.813 44.501-8.884.007-5.947 5.56.699 9.197 2.409 1.322 12.3 6.816 12.3 6.816v1.667c.021 11.276 9.169 20.403 20.446 20.389s20.403-9.169 20.389-20.446v-1.667l41.756-.055.015 9.932c.585 13.516 10.04 23.854 22.04 24.786-5.239 16.971-17.539 30.177-32.76 36.445-28.679 11.814-61.703 9.877-79.512-21.246-4.901-8.57-13.134-6.861-9.856 3.838 14.38 46.895 67.705 49.082 96.679 38.74 47.974-17.123 56.065-66.441 53.613-100.016-.521-7.203-6.525-12.785-13.758-12.778l-94.961.137c14.157-11.418 19.123-35.719 5.953-56.871-4.83-7.762-9.87-11.514-17.954-4.031C97.239 75.697 86.39 75.417 75 75.431c-43.472.057-69.694 17.352-69.694 79.098v46.673h-.057v96.715c0 10.639 8.653 19.301 19.304 19.301h111.804c98.464 0 157.252-69.936 157.252-159.253C293.609 69.458 235.631 0 138.502 0m519.941 206.804l-.659.038-.334.413c-2.486 3.066-5.782 4.623-9.797 4.623-6.641 0-9.113-3.716-9.113-13.719v-41.938h9.04c3.796 0 5.561-1.542 5.561-4.844v-.866c0-3.3-1.765-4.844-5.561-4.844h-9.04v-18.216c-.216-3.479-2.588-7.055-7.124-7.196-4.854-.272-6.561.907-6.561 2.166 0 1.843 2.243.07 2.243 7.116l.028-.026v16.157h-2.421c-3.798 0-5.561 1.544-5.561 4.844v.866c0 3.301 1.763 4.844 5.561 4.844h2.421v42.945c0 15.465 6.617 22.982 20.248 22.982 9.51 0 15.205-4.881 15.205-9.597.001-3.717-2.736-5.748-4.136-5.748m-65.976 8.342c8.784-6.54 14.206-17.152 14.206-29.852 0-9.739-3.145-18.251-8.496-24.684 1.3-1.25 2.33-2.973 3.081-5.216 1.669-4.959-.925-10.893-3.382-11.713-1.937-.65-3.487.058-3.723 1.151l-.093.343s-1.795 7.189-6.053 7.146c-5.152-2.738-11.151-4.261-17.703-4.261-21.152 0-36.51 15.538-36.51 36.942 0 21.575 15.358 37.232 36.51 37.232 2.795 0 26.757-.993 26.757 19.687 0 10.929-11.047 19.819-24.627 19.819-16.236 0-23.754-5.324-28.965-11.333-3.408-3.933-4.26-8.043-4.588-8.994-.936-2.654-3.209-.455-3.209.508 0 17.625 16.495 31.962 36.762 31.962 20.275 0 36.768-14.337 36.768-31.962.001-11.205-6.674-21.066-16.735-26.775m-46.966-30.144c0-15.372 10.435-26.534 24.804-26.534 14.064 0 24.663 11.531 24.663 26.826 0 15.372-10.37 26.528-24.663 26.528-14.142 0-24.804-11.527-24.804-26.82m-127.3-69.171c0-.014.007-.043.007-.057-5.422-.437-7.452.831-7.452 2.144 0 1.865 2.307.08 2.307 7.183v32.323c-4.573-5.211-12.699-9.984-23.99-9.984-20.202 0-34.318 15.429-34.318 37.518 0 21.576 14.185 37.233 33.747 37.233 10.096 0 18.208-3.655 24.706-11.149v4.375c0 3.724 1.735 5.612 5.172 5.612h1.014c3.476 0 5.312-1.939 5.312-5.612v-89.553c-.031-6.446-2.183-9.705-6.505-10.033M389.515 211.7c-13.307 0-22.969-11.312-22.969-26.885 0-16.08 9.349-26.883 23.257-26.883 10.911 0 18.729 5.071 23.26 15.063v19.036c-1.316 10.973-11.548 19.669-23.548 19.669m405.631-64.261c-10.132 0-18.244 3.688-24.712 11.258-.034-6.447-2.179-9.707-6.502-10.027v-.064c-5.418-.436-7.262.828-7.262 2.149 0 1.859 2.265.071 2.265 7.178v85.183c0 3.675 1.837 5.609 5.317 5.609h1.017c3.471 0 5.311-1.935 5.311-5.609v-31.707c4.574 5.633 12.698 10.782 23.989 10.782 20.21 0 34.324-15.426 34.324-37.518 0-21.575-14.194-37.234-33.747-37.234m-1.307 64.261c-12.899 0-23.405-9.975-23.405-22.245v-16.011c4.438-10.003 12.844-15.512 23.697-15.512 13.3 0 22.962 11.303 22.962 26.883 0 16.081-9.338 26.885-23.254 26.885m-311.292-64.261c-21.318 0-36.791 15.658-36.791 37.233 0 21.738 15.473 37.518 36.791 37.518 21.231 0 36.646-15.657 36.646-37.232.001-21.738-15.414-37.519-36.646-37.519m0 64.261c-14.25 0-24.998-11.62-24.998-27.027 0-15.493 10.51-26.74 24.998-26.74 14.17 0 24.854 11.618 24.854 27.025 0 15.493-10.453 26.742-24.854 26.742m222.332-64.261c-21.315 0-36.788 15.658-36.788 37.233 0 21.738 15.473 37.518 36.788 37.518 21.231 0 36.647-15.657 36.647-37.232.001-21.738-15.415-37.519-36.647-37.519m0 64.261c-14.248 0-24.997-11.62-24.997-27.027 0-15.493 10.511-26.74 24.997-26.74 14.173 0 24.856 11.618 24.856 27.025.001 15.493-10.453 26.742-24.856 26.742m150.077-92.253c-4.894 0-7.488 2.536-7.488 7.347 0 4.675 2.62 7.345 7.201 7.345 4.903 0 7.491-2.537 7.491-7.345 0-4.811-2.488-7.347-7.204-7.347m5.567 37.813c-.334-5.475-2.072-8.235-7.14-8.691-3.595-.194-5.574.399-6.346 1.237-.265.271-.393.922-.386.937l-.007.006c0 1.051.729.943 1.364 1.915.479.757.9 2.165.9 5.225 0 0 .007-.007.007-.014v57.55c0 3.667 1.837 5.603 5.317 5.603h1.017c3.474 0 5.315-1.936 5.315-5.603.002-.001-.048-57.044-.041-58.165m81.025 54.469V175.39c0-17.237-11.156-27.943-29.105-27.943-18.146 0-29.244 11.042-29.244 17.059 0 2.959 1.552 4.597 2.852 5.445.708.459 3.116 1.545 4.804 1.201.042-.406.107-1.166.854-2.402 4.312-6.715 11.336-10.382 20.012-10.382 11.812 0 18.324 6.146 18.324 17.308v1.357h-.364c-33.954.773-49.096 8.362-49.096 24.606 0 12.584 9.537 20.411 24.896 20.411 9.971 0 18.796-3.848 24.714-10.648.143 6.475 2.531 9.597 7.676 9.597 4.452.149 6.046-.993 6.046-2.209-.001-1.858-2.369-.313-2.369-7.061m-11.504-19.811c0 11.635-9.961 20.07-23.692 20.07-8.618 0-13.977-3.969-13.977-10.35 0-9.503 10.396-13.951 34.761-14.844l2.908-.107zM544.6 272.282c-6.424-3.408-10.864-7.234-13.451-18.519-.155-.691-.729-.299-.871.028-2.059 4.92-2.594 9.575 1.229 14.83 3.823 5.247 11.975 5.358 13.135 4.566.32-.218.394-.678-.042-.905m410.621-57.539c0-3.494 2.501-6.067 6.016-6.067 3.532 0 6.003 2.522 6.003 6.035 0 3.515-2.509 6.089-6.023 6.089-3.547 0-5.996-2.525-5.996-6.057m10.863 0c0-2.9-2.038-5.008-4.868-5.008-2.9 0-4.845 2.07-4.845 4.997 0 2.879 2.017 5.008 4.865 5.008 2.89 0 4.848-2.072 4.848-4.997m-3.982 2.581l-1.099-1.571h-.652v1.387c0 .486-.248.778-.736.778h-.233c-.465 0-.725-.357-.725-.959v-4.466c0-.615.325-.935.879-.935h1.931c1.716 0 2.639.665 2.639 2.035 0 .958-.528 1.624-1.482 1.852l1.447 1.895c.067.105-.418.612-.979.612-.303 0-.703-.14-.99-.628m-1.786-2.814h1.066c.663 0 1.027-.299 1.027-.811 0-.554-.364-.828-1.064-.828h-1.029z"/></g></switch></svg>