<?xml version="1.0" encoding="UTF-8"?>
<svg width="126px" height="161px" viewBox="0 0 126 161" version="1.1" xmlns="http://www.w3.org/2000/svg" xmlns:xlink="http://www.w3.org/1999/xlink">
    <title>Logo+copy Copy</title>
    <defs>
        <polygon id="path-1" points="0 161 126 161 126 0 0 0"></polygon>
    </defs>
    <g id="Phase-1-defined" stroke="none" stroke-width="1" fill="none" fill-rule="evenodd">
        <g id="01_Rweb_768_GHP_Brand_Evolution" transform="translate(-124.000000, -32.000000)">
            <g id="Group-11" transform="translate(15.189081, 32.000000)">
                <g id="Logo+copy-Copy" transform="translate(108.810919, 0.000000)">
                    <path d="M32.467333,36.688664 L38.4336255,36.688664 C40.2497673,36.688664 40.9700513,35.8269345 40.9700513,34.0739122 L40.9700513,28.2419568 L41.8923515,26.6335548 L35.5011837,26.6335548 L35.5011837,29.3625648 L37.3381685,29.3625648 L37.3381685,32.6664605 C37.3381685,33.4418973 36.9349377,33.9592546 36.1565339,33.9592546 L34.7728832,33.9592546 C33.9660208,33.9592546 33.5912486,33.4418973 33.5912486,32.6664605 L33.5912486,20.6002496 C33.5912486,19.8248129 33.9660208,19.3074556 34.7728832,19.3074556 L36.2431123,19.3074556 C37.0499747,19.3074556 37.4251477,19.8248129 37.4251477,20.6002496 L37.4251477,23.5322074 L40.9700513,23.5322074 L40.9700513,19.192798 C40.9700513,17.4401752 40.2497673,16.5784457 38.4336255,16.5784457 L32.467333,16.5784457 C30.6800506,16.5784457 29.9593658,17.4401752 29.9593658,19.192798 L29.9593658,34.0739122 C29.9593658,35.8269345 30.6800506,36.688664 32.467333,36.688664" id="Fill-1" fill="#FFFFFF"></path>
                    <path d="M49.206982,19.3076953 L51.2824581,19.3076953 C52.3490557,19.3076953 52.8388648,19.9972387 52.8388648,21.0023901 L52.8388648,23.5592139 C52.8388648,24.5651643 52.3490557,25.2543082 51.2824581,25.2543082 L49.206982,25.2543082 L49.206982,19.3076953 Z M44.6816584,36.6885042 L50.1296831,36.6885042 L49.206982,35.0793032 L49.206982,27.9837176 L49.7833695,27.9837176 C50.9654049,27.9837176 51.3401771,28.5873677 51.62797,29.8222337 L52.9539018,35.0793032 L52.4352332,36.6885042 L58.1133319,36.6885042 L56.845119,35.108467 L54.6838661,27.8686605 C55.9516782,27.5530526 56.4707477,26.6337945 56.4707477,24.9954298 L56.4707477,19.1930377 C56.4707477,17.4404149 55.749662,16.5786854 53.9627805,16.5786854 L44.6816584,16.5786854 L45.5750992,18.1870873 L45.5750992,35.0793032 L44.6816584,36.6885042 Z" id="Fill-3" fill="#FFFFFF"></path>
                    <polygon id="Fill-5" fill="#FFFFFF" points="60.9026789 36.688664 71.7694679 36.688664 71.7694679 32.4075821 68.7428321 33.9592546 65.4280025 33.9592546 65.4280025 28.0122422 68.4257788 28.0122422 70.0980242 28.7589146 70.0980242 24.507396 68.4257788 25.254468 65.4280025 25.254468 65.4280025 19.3074556 68.7428321 19.3074556 71.7694679 20.859128 71.7694679 16.5784457 60.9026789 16.5784457 61.7965205 18.1872471 61.7965205 35.079463"></polygon>
                    <path d="M79.8012158,30.0808725 L81.3283622,19.8531777 L82.8563103,30.0808725 L79.8012158,30.0808725 Z M84.0383457,16.5784457 L78.7634778,16.5784457 L75.4197887,35.079463 L74.3820506,36.688664 L79.8589348,36.688664 L79.1089896,35.079463 L79.4549023,32.8102819 L83.2310825,32.8102819 L83.5765943,35.079463 L82.7985914,36.688664 L88.419372,36.688664 L87.4104934,35.079463 L84.0383457,16.5784457 Z" id="Fill-7" fill="#FFFFFF"></path>
                    <polygon id="Fill-9" fill="#FFFFFF" points="93.2176981 19.1064653 93.2176981 35.0794231 92.3242573 36.6886241 97.7426208 36.6886241 96.8491801 35.0794231 96.8491801 19.1064653 97.9025503 19.1064653 100.957645 21.0600385 100.957645 16.5784057 89.1088325 16.5784057 89.1088325 21.0600385 92.1931872 19.1064653"></polygon>
                    <polygon id="Fill-11" fill="#FFFFFF" points="80.9075352 60.130304 80.9075352 44.357897 81.8298354 42.749495 76.3818108 42.749495 77.2756524 44.357897 77.2756524 61.2509119 76.3818108 62.8593139 87.2490006 62.8593139 87.2490006 58.5794305 84.1935053 60.130304"></polygon>
                    <polygon id="Fill-13" fill="#FFFFFF" points="90.9846573 44.3580968 90.9846573 61.2507122 90.0912165 62.8595136 95.5388403 62.8595136 94.6165401 61.2507122 94.6165401 54.3269132 97.6143165 54.3269132 99.286161 55.0743846 99.286161 50.822067 97.6143165 51.569139 94.6165401 51.569139 94.6165401 45.4787047 97.87325 45.4787047 100.957605 47.0299777 100.957605 42.7492953 90.0912165 42.7492953"></polygon>
                    <path d="M57.0002386,41.5042819 C57.1958416,41.4127955 57.4443536,41.4715226 57.54937,41.6680784 C57.6796384,41.9129742 57.9004934,41.83587 57.9004934,41.83587 C57.9305553,41.1655027 57.1313086,39.6989246 57.1313086,39.6989246 C56.4442932,40.6301677 56.4731526,41.94853 56.4731526,41.94853 C56.6904002,42.0623886 56.8214703,41.5893762 57.0002386,41.5042819" id="Fill-15" fill="#FFFFFF"></path>
                    <path d="M56.8246769,43.3370452 C56.6895986,43.3941742 56.56895,43.4672834 56.4615287,43.5523777 C55.9965707,43.9191221 55.7516661,44.505194 55.5059599,45.0529136 C55.3039437,45.4995588 54.886684,45.9066531 54.8173411,46.4016382 C54.5568043,48.2705166 54.9207542,50.1381965 55.9284303,51.7346134 C56.7144498,52.982663 58.3245671,52.7457573 58.3245671,52.7449583 C59.0689007,52.6354943 59.8589284,52.8720005 60.4946382,52.3246804 C60.9904597,51.8964124 61.1640173,51.1413504 61.289075,50.5253156 C61.6025207,48.9760402 61.3471947,47.2997226 60.5070638,45.9474025 C60.0525273,45.2163107 58.9815207,43.8827672 58.9815207,43.8827672 C58.5321949,43.1672561 57.5569857,43.0230352 56.8246769,43.3370452" id="Fill-17" fill="#FFFFFF"></path>
                    <path d="M69.9725657,48.2054375 C69.9725657,48.2054375 69.9906029,47.1962911 70.8267255,47.6073804 C70.8267255,47.6073804 70.5088707,46.329368 69.8014131,46.0209511 C69.8014131,46.0209511 69.6262522,47.6261571 69.9725657,48.2054375" id="Fill-19" fill="#FFFFFF"></path>
                    <path d="M60.3435669,41.0059809 C60.3435669,41.0059809 60.5676285,40.9484524 60.6558102,40.7239313 C60.6558102,40.7239313 60.5495914,40.05676 61.3147679,40.2009809 C61.3147679,40.2009809 61.894362,40.5433556 61.7789242,40.1814052 C61.7789242,40.1814052 61.0678592,39.1950305 59.832514,39.1662663 C59.832514,39.1662663 59.8934395,40.694368 60.3435669,41.0059809" id="Fill-21" fill="#FFFFFF"></path>
                    <path d="M64.4115082,42.5018027 C63.9249056,42.1574305 63.3994229,41.7359541 62.807804,41.7267655 C62.6478745,41.7235695 62.481131,41.7515347 62.3123833,41.8186514 C60.4124689,42.5765099 61.1996908,45.6167333 61.6911033,47.0213883 C62.0975406,48.1891377 62.6839488,49.297361 63.4006254,50.3005149 C63.8431371,50.7427655 64.7189416,51.1506588 65.3534489,51.119897 C66.6340874,51.0583734 67.9876762,49.3421055 67.8425772,48.0832692 C67.626933,46.2275744 66.830492,44.6355521 65.6348286,43.226902 C65.3482381,42.8877233 64.7814704,42.7622792 64.4115082,42.5018027" id="Fill-23" fill="#FFFFFF"></path>
                    <path d="M53.538346,51.5327841 C53.8337546,51.2583251 52.9868096,49.5576377 52.9868096,49.5576377 C52.7034258,49.8265037 52.5952028,51.2862903 52.5952028,51.2862903 C53.2457431,50.876799 53.538346,51.5327841 53.538346,51.5327841" id="Fill-25" fill="#FFFFFF"></path>
                    <path d="M71.8849057,49.8439221 C71.0078988,49.2274878 69.8595328,49.3273638 68.9941499,50.6113687 C68.9941499,50.6113687 68.515163,52.1630412 68.0850769,52.4271132 C66.9146655,53.1418253 66.8898143,56.4880685 68.1484074,57.1204829 C71.1413738,58.6242149 73.9896422,55.8256913 73.3627506,52.7634953 C73.1483087,51.7175945 72.7975861,50.4851256 71.8849057,49.8439221" id="Fill-27" fill="#FFFFFF"></path>
                    <path d="M69.4631161,58.4345705 C68.6931297,58.0830072 67.7543956,57.9260022 67.1126734,57.3311412 C66.8100499,57.0498906 66.6184552,56.5916598 66.342687,56.2772504 C65.8384481,55.701965 64.5321567,55.1390643 63.7878232,54.9808608 C62.6326431,54.732769 61.4718515,55.484635 60.8473649,56.4186747 C60.2541427,57.3027764 60.2052419,58.2615854 59.8448995,59.2319799 C59.8220524,59.291506 59.7984037,59.3614191 59.7739533,59.4369253 C59.585966,60.0110122 59.3386565,60.9402578 58.9582728,61.2758409 C57.8463819,62.2538261 57.8211299,64.2449526 57.8211299,64.2449526 C57.7874605,66.7582305 60.7495634,66.5544836 62.5348416,66.5077417 C64.1385458,66.4665928 65.7266177,66.0810717 67.2253055,65.51897 C68.5175679,65.034372 69.4947813,64.3743918 70.6082755,63.5677938 C71.9245875,62.6145779 72.9551107,61.4656052 71.6596416,60.0062181 C71.069626,59.3418434 70.2683752,58.8009154 69.4631161,58.4345705" id="Fill-29" fill="#FFFFFF"></path>
                    <path d="M57.4844362,55.9987563 C57.2944447,55.317203 56.2543017,54.731131 56.2543017,54.731131 C55.7925504,54.6424412 54.8714526,53.4331434 54.8714526,53.4331434 C53.0452901,52.1139821 52.0183744,53.6552675 52.0183744,53.6552675 C51.6315774,54.405935 51.6299741,54.9772253 51.6704575,55.798605 C51.6981145,56.34193 51.6315774,56.878863 51.8135524,57.4022129 C51.9185687,57.7046372 52.1594651,57.9367489 52.2724979,58.2164015 C52.7502823,59.4041261 54.1070778,59.8276 54.1070778,59.8276 C56.3308595,60.7392675 57.7060929,58.8771806 57.7060929,58.8771806 C58.5470255,57.9759002 57.4844362,55.9987563 57.4844362,55.9987563" id="Fill-31" fill="#FFFFFF"></path>
                    <polygon id="Fill-33" fill="#FFFFFF" points="48.9841228 44.3577372 50.0218609 42.7489357 44.6604146 42.7489357 45.35224 44.3577372 43.6803955 58.7510573 41.6918985 44.3577372 42.4699015 42.7489357 36.5897866 42.7489357 37.223893 44.3577372 35.3504331 58.8081864 33.6497291 44.3577372 34.3988726 42.7489357 28.8935298 42.7489357 29.9028093 44.3577372 32.7562884 62.8591541 37.7425617 62.8591541 39.4436665 50.2472211 41.2012877 62.8591541 46.1017843 62.8591541"></polygon>
                    <polygon id="Fill-35" fill="#FFFFFF" points="33.6641989 86.3005144 33.6641989 70.5285069 34.5864992 68.9197055 29.1388753 68.9197055 30.0323161 70.5285069 30.0323161 87.4211223 29.1388753 89.0299238 40.0056644 89.0299238 40.0056644 84.7496409 36.9501691 86.3005144"></polygon>
                    <path d="M81.2434273,78.975334 L80.3283419,78.975334 L80.3283419,81.7043439 L82.1657275,81.7043439 L82.1657275,85.0082397 C82.1657275,85.7840759 81.7624967,86.3014333 80.9840929,86.3014333 L79.6004422,86.3014333 C78.793179,86.3014333 78.4188076,85.7840759 78.4188076,85.0082397 L78.4188076,72.9420288 C78.4188076,72.1661926 78.793179,71.6492347 79.6004422,71.6492347 L81.0706713,71.6492347 C81.8775337,71.6492347 82.2523059,72.1661926 82.2523059,72.9420288 L82.2523059,74.3342993 L82.2523059,75.1253166 L82.2523059,75.8739866 L85.7976103,75.8739866 L85.7976103,75.058999 L85.7976103,74.3342993 L85.7976103,71.5345772 C85.7976103,69.7823538 85.0769255,68.9202248 83.2611845,68.9202248 L77.2944912,68.9202248 C75.5076096,68.9202248 74.7869248,69.7823538 74.7869248,71.5345772 L74.7869248,86.4156913 C74.7869248,88.1683141 75.5076096,89.0304432 77.2944912,89.0304432 L83.2611845,89.0304432 C85.0769255,89.0304432 85.7976103,88.1683141 85.7976103,86.4156913 L85.7976103,80.5841355 L86.7199105,78.975334 L85.6677427,78.975334 L81.2434273,78.975334 Z" id="Fill-37" fill="#FFFFFF"></path>
                    <path d="M50.8957013,85.0081199 C50.8957013,85.7835566 50.4920697,86.3005144 49.7144676,86.3005144 L48.3308168,86.3005144 C47.5235536,86.3005144 47.1483806,85.7835566 47.1483806,85.0081199 L47.1483806,72.9415094 C47.1483806,72.1656732 47.5235536,71.6487154 48.3308168,71.6487154 L49.7144676,71.6487154 C50.4920697,71.6487154 50.8957013,72.1656732 50.8957013,72.9415094 L50.8957013,85.0081199 Z M51.9911583,68.920105 L46.0248658,68.920105 C44.2375835,68.920105 43.5168986,69.781435 43.5168986,71.5340578 L43.5168986,86.415971 C43.5168986,88.1681943 44.2375835,89.0299238 46.0248658,89.0299238 L51.9911583,89.0299238 C53.8068993,89.0299238 54.5275841,88.1681943 54.5275841,86.415971 L54.5275841,71.5340578 C54.5275841,69.781435 53.8068993,68.920105 51.9911583,68.920105 L51.9911583,68.920105 Z" id="Fill-39" fill="#FFFFFF"></path>
                    <path d="M66.6317225,84.6057397 C66.6317225,85.6112906 66.1419133,86.3004345 65.0753158,86.3004345 L62.9998397,86.3004345 L62.9998397,71.649035 L65.0753158,71.649035 C66.1419133,71.649035 66.6317225,72.3381789 66.6317225,73.3437298 L66.6317225,84.6057397 Z M67.756039,68.9196256 L58.4745161,68.9196256 L59.3683577,70.528427 L59.3683577,87.4210424 L58.4745161,89.0298439 L67.756039,89.0298439 C69.5425197,89.0298439 70.2636053,88.1681144 70.2636053,86.4154916 L70.2636053,71.5339779 C70.2636053,69.7817546 69.5425197,68.9196256 67.756039,68.9196256 L67.756039,68.9196256 Z" id="Fill-41" fill="#FFFFFF"></path>
                    <polygon id="Fill-43" fill="#FFFFFF" points="90.9846573 70.5289065 90.9846573 87.4219213 90.0908157 89.0303233 100.957605 89.0303233 100.957605 84.7500404 97.9309689 86.3013134 94.6165401 86.3013134 94.6165401 80.3547005 97.6139157 80.3547005 99.286161 81.101373 99.286161 76.8494548 97.6139157 77.5969263 94.6165401 77.5969263 94.6165401 71.6495144 97.9309689 71.6495144 100.957605 73.2015864 100.957605 68.920105 90.0908157 68.920105"></polygon>
                    <mask id="mask-2" fill="white">
                        <use xlink:href="#path-1"></use>
                    </mask>
                    <g id="Clip-46"></g>
                    <path d="M18.005497,100.978561 L112.911433,100.978561 L112.911433,4.63024814 L18.005497,4.63024814 L18.005497,100.978561 Z M13.3302646,105.609208 L117.587067,105.609208 L117.587067,0 L13.3302646,0 L13.3302646,105.609208 Z" id="Fill-45" fill="#FFFFFF" mask="url(#mask-2)"></path>
                    <path d="M122.799446,105.107272 C121.362485,105.107272 120.199289,103.905565 120.199289,102.374267 C120.199289,100.870535 121.362485,99.6524481 122.784615,99.6524481 L122.799446,99.6524481 C124.235204,99.6524481 125.384772,100.870535 125.384772,102.387051 C125.384772,103.905565 124.235204,105.122054 122.799446,105.107272 M122.799446,99.1522695 L122.784615,99.1522695 C121.017374,99.1522695 119.581616,100.582892 119.581616,102.374267 C119.581616,104.191609 121.017374,105.609049 122.784615,105.609049 C124.567088,105.609049 125.973586,104.191609 125.973586,102.374267 C125.973586,100.582892 124.567088,99.1522695 122.799446,99.1522695" id="Fill-47" fill="#FFFFFF" mask="url(#mask-2)"></path>
                    <path d="M123.145318,102.386292 C123.053129,102.463396 122.920054,102.501349 122.742889,102.501349 L122.265907,102.501349 L122.265907,101.620443 L122.742889,101.620443 C122.920054,101.620443 123.053129,101.658796 123.145318,101.734302 C123.237508,101.810208 123.282802,101.919672 123.282802,102.061096 C123.282802,102.201322 123.237508,102.309188 123.145318,102.386292 M123.740946,102.546893 C123.831532,102.411061 123.876826,102.249262 123.876826,102.061096 C123.876826,101.874528 123.831532,101.711131 123.742148,101.574101 C123.652764,101.436672 123.525702,101.330404 123.360161,101.255697 C123.195021,101.181788 123.00062,101.145433 122.776559,101.145433 L121.679098,101.145433 L121.679098,103.669498 L122.265907,103.669498 L122.265907,102.966771 L122.804216,102.966771 L123.293223,103.669498 L123.923722,103.669498 L123.35455,102.858905 C123.521293,102.785796 123.649958,102.682324 123.740946,102.546893" id="Fill-48" fill="#FFFFFF" mask="url(#mask-2)"></path>
                    <path d="M0.0425276204,131.486862 L0.0425276204,131.083763 C2.02260721,131.317073 3.19341946,131.338247 3.98144304,131.338247 C4.40712007,131.338247 4.70533448,131.317073 4.918173,131.317073 C5.0035489,132.144845 5.21638741,133.630599 5.87654755,133.630599 C6.43008802,133.630599 7.02611603,132.951043 7.02611603,131.317073 C7.02611603,130.8928 6.83452128,130.786532 6.47217473,130.744185 C4.62035941,130.532048 3.42790257,130.468128 2.21420196,130.298339 C0.915526275,130.128949 4.00825828e-05,129.640756 4.00825828e-05,128.02756 C4.00825828e-05,125.545043 1.02174512,122.128088 3.51327847,120.91879 C4.13055024,120.62156 4.8327971,120.494517 5.59997773,120.494517 C8.96370808,120.494517 11.5614603,122.25553 11.5614603,126.181852 L11.5614603,126.563778 C10.9862752,126.563778 10.1986525,126.499857 9.68800036,126.499857 C8.96370808,126.499857 7.89911468,126.542604 6.96238472,126.669646 C6.89865342,125.587391 6.600439,124.335346 5.74868411,124.335346 C5.55708937,124.335346 5.32260626,124.547483 5.15265611,124.865887 C4.85444169,125.396428 4.68409071,126.160279 4.68409071,126.606125 C4.68409071,126.902957 4.81195415,127.136267 5.25887495,127.178614 C6.21684868,127.285282 7.23935537,127.433498 9.11281529,127.582512 C10.9862752,127.709555 11.8384309,128.197748 11.8384309,129.916413 C11.8384309,133.39649 10.1345203,137.343986 5.85530378,137.343986 C2.2566895,137.343986 0.0425276204,135.306917 0.0425276204,131.486862" id="Fill-49" fill="#FFFFFF" mask="url(#mask-2)"></path>
                    <path d="M15.6703258,124.420161 C14.8823023,124.420161 12.9238673,124.547602 12.2424634,124.611124 C12.2424634,123.423 12.1574883,121.705933 12.0508686,120.644451 C13.6625893,120.64525 22.2667165,120.636062 23.6760201,120.644451 C23.6547763,121.11187 23.5906442,123.65591 23.5906442,124.35664 C22.8671536,124.314292 20.8654294,124.293119 20.0990504,124.293119 L20.0990504,137.047275 L15.6065945,137.237838 L15.6703258,124.420161 Z" id="Fill-50" fill="#FFFFFF" mask="url(#mask-2)"></path>
                    <path d="M30.4250853,128.982973 C30.9361383,128.79201 31.1489768,128.473206 31.2131089,127.730928 C31.2768402,127.178814 31.3405715,126.308695 31.3405715,125.778553 C31.3405715,125.184491 31.298084,124.611203 30.5741925,124.420241 C30.2972219,124.335546 29.8286565,124.292799 29.3392482,124.271625 L29.3608928,129.216283 C29.7224377,129.152762 30.0631396,129.110015 30.4250853,128.982973 L30.4250853,128.982973 Z M30.0843834,132.717933 L29.3608928,132.866149 L29.3392482,135.158102 C29.3392482,135.646295 29.3392482,136.388973 29.3180044,137.046955 C27.9768412,137.089702 26.3799511,137.046955 24.868036,137.173998 C24.8892798,136.728551 24.953412,135.412985 24.953412,133.566878 C24.953412,129.980134 24.9377797,125.069035 24.9161351,120.590998 C26.0873482,120.590998 28.073841,120.676891 29.6587064,120.812722 C34.8189381,121.254973 35.8542712,122.892538 35.8542712,125.205665 C35.8542712,125.884422 35.6839202,127.900717 35.6414327,128.515953 C35.5352138,129.704077 35.1516235,130.829079 34.0870301,131.486663 C34.9600288,133.566878 35.6839202,135.455333 36.3865679,137.004608 C34.598083,137.004608 32.2989461,137.195571 31.4896787,137.323012 L30.0843834,132.717933 Z" id="Fill-51" fill="#FFFFFF" mask="url(#mask-2)"></path>
                    <path d="M37.9193258,133.205887 C37.9193258,130.510835 37.983458,128.070267 38.0259455,124.759979 C37.642756,124.802326 37.2808103,124.865847 36.89722,124.908594 C36.89722,124.547443 36.9825959,123.804765 36.9825959,123.444013 C36.9825959,122.849552 36.9613521,121.388966 36.89722,120.794904 C39.0781133,120.709011 46.5134324,120.702219 47.1387207,120.736177 C47.1387207,122.009795 47.1812083,123.48676 47.2240966,124.441574 C46.8192625,124.399227 45.7975575,124.378053 45.0736661,124.378053 C44.6267453,124.378053 43.3914001,124.399227 42.4971576,124.462748 C42.4546701,125.502656 42.4546701,126.28808 42.4546701,127.051932 C43.1573178,127.009185 44.1148907,126.966837 44.7325633,126.966837 C45.2011287,126.966837 45.7975575,127.009185 46.1378586,127.051932 L46.1595032,130.574755 C45.520186,130.510835 43.2426937,130.510835 42.4546701,130.510835 L42.4546701,132.144805 C42.4546701,132.76044 42.6037773,133.078845 42.9015909,133.290582 C43.2847804,133.545465 43.9236968,133.587812 45.1802857,133.587812 C45.6696941,133.587812 46.776775,133.523892 47.0958324,133.503118 C47.117477,135.03082 47.3090717,136.516574 47.372803,137.195331 C46.180747,137.322773 44.498481,137.322773 43.6254823,137.322773 C39.1542702,137.322773 37.9193258,135.540187 37.9193258,133.205887" id="Fill-52" fill="#FFFFFF" mask="url(#mask-2)"></path>
                    <path d="M48.9905361,120.642813 C50.523294,120.642813 52.5606917,120.698344 53.6958305,120.642813 C54.3347468,122.637935 55.6121787,125.650992 56.8471231,128.749543 L56.6559292,120.642813 C57.8054977,120.642813 59.5727388,120.642813 61.2546039,120.663987 C61.1904718,123.083381 61.1479843,130.574476 61.1479843,133.184433 C61.1479843,134.415704 61.169228,135.752443 61.1904718,137.026061 C60.7860385,137.004488 60.3603615,137.004488 59.9134407,137.004488 C59.2528797,137.004488 57.7838531,137.068409 56.9320982,137.216625 C55.9316369,134.585094 54.6966926,132.038657 53.3767731,128.855811 L53.3767731,131.614384 C53.3767731,132.293141 53.397616,133.184433 53.397616,134.733709 C53.397616,135.455213 53.397616,136.325332 53.4192606,137.174277 C53.14229,137.153503 52.546262,137.110756 51.4604248,137.110756 C50.523294,137.110756 49.5228328,137.174277 48.8626726,137.258972 C48.9268048,131.147364 48.9692923,125.99057 48.9905361,120.91887" id="Fill-53" fill="#FFFFFF" mask="url(#mask-2)"></path>
                    <path d="M70.6435481,136.176876 C70.1112514,136.89838 69.2811411,137.450095 67.8121145,137.450095 C64.3626074,137.450095 62.8082048,134.627601 62.8082048,129.428459 C62.8082048,123.147062 65.2568498,120.473184 69.1320339,120.473184 C73.9010596,120.473184 74.8169467,123.783871 74.8169467,125.905635 C74.8169467,126.393829 74.7953021,126.669886 74.7740583,126.903196 C74.0930552,126.903196 70.7926553,127.072985 70.2607595,127.136506 C70.2607595,127.009464 70.2607595,126.775755 70.2391149,126.542444 C70.1966273,125.651152 69.8555246,124.208144 69.0891456,124.208144 C68.2161469,124.208144 67.5563876,125.481762 67.5563876,129.25907 C67.5563876,132.993631 68.2590353,133.566918 69.0254143,133.566918 C69.7280619,133.566918 70.3453337,132.908536 70.4307096,131.465529 C69.8767683,131.486702 69.38736,131.486702 68.9191954,131.486702 C68.9404392,130.765199 68.961683,129.25907 68.961683,128.239936 L71.6444102,128.239936 C73.0709494,128.239936 74.2842491,128.155241 74.8381904,128.134067 C74.7740583,129.598248 74.7528145,130.871866 74.7528145,132.187432 C74.7528145,134.245675 74.7953021,135.858472 74.8169467,137.428921 C73.2413003,137.450095 71.7506291,137.641057 70.6010606,137.853593 L70.6435481,136.176876 Z" id="Fill-54" fill="#FFFFFF" mask="url(#mask-2)"></path>
                    <path d="M79.1170061,124.420161 C78.3289826,124.420161 76.3705476,124.547602 75.6891437,124.611124 C75.6891437,123.423 75.6041686,121.737893 75.4975489,120.676811 C77.1241001,120.676811 85.685339,120.668421 87.1231012,120.676811 C87.1014567,121.14423 87.0373245,123.65591 87.0373245,124.35664 C86.3138339,124.314292 84.3121097,124.293119 83.5457307,124.293119 L83.5457307,137.047275 L79.0532748,137.237838 L79.1170061,124.420161 Z" id="Fill-55" fill="#FFFFFF" mask="url(#mask-2)"></path>
                    <path d="M95.7244227,130.89288 C95.0001304,130.914054 93.339509,130.935228 92.8288569,130.935228 C92.8288569,131.868868 92.8496999,132.314314 92.8496999,133.248354 C92.8496999,134.542746 92.8496999,135.986153 92.8709436,137.259371 C92.4665104,137.195451 91.4023178,137.153103 90.3802119,137.153103 C89.7412956,137.153103 88.953272,137.195451 88.2722689,137.280545 C88.3788886,129.449873 88.4213761,124.896329 88.4426199,120.673175 L92.9775633,120.673175 C92.9350758,124.514404 92.913832,125.948223 92.8709436,127.179094 L93.8718057,127.179094 C94.5744534,127.15792 95.1708822,127.15792 95.7452656,127.115173 L95.8306415,120.673175 C95.8306415,120.673175 99.9515319,120.662389 100.344341,120.673175 C100.195635,125.108066 100.174391,129.555741 100.174391,133.396969 C100.174391,134.309436 100.174391,135.476786 100.195635,137.237798 C99.6420943,137.216625 99.003178,137.195451 98.5346126,137.195451 C97.5341513,137.195451 96.2350748,137.280545 95.6602906,137.386813 L95.7244227,130.89288 Z" id="Fill-56" fill="#FFFFFF" mask="url(#mask-2)"></path>
                    <path d="M102.664762,133.205887 C102.664762,130.510835 102.728493,128.070267 102.771382,124.759979 C102.387791,124.802326 102.026246,124.865847 101.642656,124.908594 C101.642656,124.547443 101.728032,123.804765 101.728032,123.444013 C101.728032,122.849552 101.706387,121.262723 101.642656,120.668262 C103.830364,120.633904 111.248046,120.6375 111.884157,120.668262 C111.884157,121.941879 111.926644,123.48676 111.969132,124.441574 C111.564298,124.399227 110.542593,124.378053 109.818701,124.378053 C109.371781,124.378053 108.136435,124.399227 107.242193,124.462748 C107.200106,125.502656 107.200106,126.28808 107.200106,127.051932 C107.902353,127.009185 108.860327,126.966837 109.477999,126.966837 C109.946164,126.966837 110.542593,127.009185 110.883295,127.051932 L110.904539,130.574755 C110.265622,130.510835 107.987729,130.510835 107.200106,130.510835 L107.200106,132.144805 C107.200106,132.76044 107.348813,133.078845 107.646626,133.290582 C108.030217,133.545465 108.668732,133.587812 109.925321,133.587812 C110.414729,133.587812 111.522211,133.523892 111.840868,133.503118 C111.862512,135.03082 112.054107,136.516574 112.118239,137.195331 C110.925782,137.322773 109.243917,137.322773 108.370918,137.322773 C103.899706,137.322773 102.664762,135.540187 102.664762,133.205887" id="Fill-57" fill="#FFFFFF" mask="url(#mask-2)"></path>
                    <path d="M113.735932,120.643812 C115.26869,120.643812 117.287249,120.698544 118.441227,120.642613 C119.079742,122.637735 120.357174,125.651192 121.592519,128.749343 L121.443011,120.643812 C122.59298,120.643812 124.333366,120.642613 126,120.663787 C125.935868,123.083182 125.89338,130.574276 125.89338,133.184633 C125.89338,134.415904 125.914624,135.752244 125.935868,137.025862 C125.531034,137.004688 125.105357,137.004688 124.658436,137.004688 C123.998276,137.004688 122.529249,137.068209 121.677494,137.216824 C120.676632,134.585293 119.442089,132.038457 118.121768,128.855611 L118.121768,131.614184 C118.121768,132.29334 118.143012,133.184633 118.143012,134.733909 C118.143012,135.455412 118.143012,136.325532 118.164256,137.174077 C117.887686,137.153303 117.291658,137.110956 116.205821,137.110956 C115.26869,137.110956 114.268229,137.174077 113.608069,137.259172 C113.672201,131.147564 113.714688,125.99077 113.735932,120.91867" id="Fill-58" fill="#FFFFFF" mask="url(#mask-2)"></path>
                    <path d="M48.9905361,120.642813 C50.523294,120.642813 52.534638,120.667183 53.6958305,120.642813 C54.3347468,122.637935 55.6121787,125.650992 56.8471231,128.749543" id="Fill-59" fill="#FFFFFF" mask="url(#mask-2)"></path>
                    <path d="M51.8328321,151.035778 C52.6060251,150.678222 52.8268801,150.402964 52.9098511,149.219234 C52.9375081,148.641153 52.9651651,147.071902 52.9651651,146.274093 C52.9651651,145.117929 52.8545371,144.374852 51.8600882,144.072029 C51.5013491,143.989331 50.9766681,143.9342 50.5622142,143.9342 L50.5622142,151.393334 C51.0592382,151.311036 51.5290061,151.173207 51.8328321,151.035778 M44.7354091,155.604902 L44.7630661,139.310344 C46.7511622,139.310344 49.1813692,139.393041 51.3907212,139.53047 C57.2179271,139.888426 58.8196271,141.732135 58.8196271,145.282924 C58.8196271,145.861006 58.7089992,149.081406 58.6260282,150.127306 C58.3498592,153.375272 56.3894201,154.531435 53.268991,155.302078 C52.0809433,155.604902 51.5013491,155.742331 50.5622142,155.907326 C50.5898712,156.650803 50.5898712,157.476577 50.5898712,158.357483 C50.5898712,159.210423 50.5622142,159.9539 50.5345572,160.531582 C49.2090262,160.531582 46.4753941,160.559148 44.5971242,160.696577 C44.6247812,160.118895 44.7354091,157.724269 44.7354091,155.604902" id="Fill-60" fill="#FFFFFF" mask="url(#mask-2)"></path>
                    <path d="M67.9684366,152.164376 L67.0577603,146.273694 C66.8369052,147.705115 66.3118234,150.705388 66.0909684,152.219507 C66.5603354,152.191942 67.5547843,152.164376 67.9684366,152.164376 M68.6867164,156.705934 L65.2624614,156.788632 L64.6824664,160.614279 C63.7709885,160.504016 62.9977955,160.504016 62.2795156,160.504016 C61.4237524,160.504016 59.8497094,160.586713 58.6348063,160.696577 C60.0705644,154.090783 62.1143753,144.512282 63.0531094,139.447773 C66.6429055,139.447773 69.1176042,139.387048 71.0892665,139.387048 C72.3594835,145.799882 74.3199226,155.081952 75.2871154,160.47685 C74.0990676,160.47685 71.5862905,160.531981 69.2390544,160.779674 C69.1288273,159.760939 68.8526583,157.834532 68.6867164,156.705934" id="Fill-61" fill="#FFFFFF" mask="url(#mask-2)"></path>
                    <path d="M75.5071687,150.347713 C75.5071687,142.723184 78.5177715,139.062532 83.3777847,139.062532 C89.6467007,139.062532 90.8066906,143.851782 90.8066906,146.659095 C90.8066906,146.824489 90.8066906,147.319874 90.7790336,147.5404 L89.3981886,147.5404 C88.1552278,147.5404 86.2224456,147.67743 84.8969146,147.87039 L84.8969146,147.402571 C84.8969146,145.916018 84.4271467,143.989611 83.4330987,143.989611 C82.4947654,143.989611 81.6658576,146.136544 81.6658576,150.127187 C81.6658576,153.925668 82.4947654,155.990303 83.4054417,155.990303 C84.2892626,155.990303 84.7862867,154.586447 84.9245716,153.127859 C84.9794847,152.604509 85.0071417,152.301685 85.0071417,151.94413 C86.6922135,151.94413 89.0667057,151.94413 90.9994878,151.668871 C90.9994878,159.238268 86.8024406,160.916983 83.2399006,160.916983 C77.6339506,160.916983 75.5071687,156.540819 75.5071687,150.347713" id="Fill-62" fill="#FFFFFF" mask="url(#mask-2)"></path>
                    <path d="M99.5234499,154.090943 L98.1698611,156.21031 L98.1422041,160.889697 C97.0928421,160.751868 96.071137,160.724302 95.297944,160.724302 C94.7460069,160.724302 93.0613359,160.751868 92.2047711,160.916863 C92.315399,154.861585 92.39837,147.677709 92.426027,139.475499 C93.2821909,139.53063 96.8443301,139.503064 98.335803,139.33767 C98.252832,141.099082 98.1975181,144.567573 98.1698611,147.457583 C99.5507061,144.677836 101.12515,141.154613 101.953256,139.254972 C103.003019,139.392801 107.724747,139.503064 108.581312,139.447933 C107.393665,141.704729 105.543453,145.090523 103.527299,148.696444 C105.294941,152.577223 107.338351,156.788392 108.967708,160.421479 C107.61452,160.421479 104.080038,160.751868 102.257082,160.99996 C101.56686,158.962491 100.434527,156.430836 99.5234499,154.090943" id="Fill-63" fill="#FFFFFF" mask="url(#mask-2)"></path>
                    <path d="M19.6136503,154.663432 C19.0039943,154.753719 18.4969496,154.389771 18.1386113,153.747769 C17.7798722,153.105367 17.5309593,152.20928 17.5930873,151.172967 C17.6427897,149.782295 17.916153,148.025278 18.3117681,146.347762 C17.8283721,146.09967 17.5209387,145.78566 17.3718315,145.489228 C17.2628069,145.188002 17.2732283,144.929523 17.3654183,144.73896 C17.4576082,144.548397 17.6295625,144.386997 17.7277648,144.373015 C17.8259672,144.359432 17.9089381,144.466898 18.3053548,144.490069 C18.4432389,144.490069 18.583528,144.52962 18.760693,144.523628 C19.025238,143.615156 19.2368741,142.891655 19.4356837,142.367106 C19.7827988,141.564104 20.1066661,141.217734 20.4802358,141.159806 C20.8145245,141.107871 21.3696683,141.158608 21.8302172,141.340382 C22.2907661,141.50258 22.6571209,141.797015 22.6535134,142.253248 C22.6611291,142.469379 22.4470881,143.118972 22.1817414,144.013461 C22.1697167,144.042226 22.1576919,144.070191 22.1456671,144.098556 C22.3548982,144.064198 22.5649309,144.029441 22.7745628,143.994285 C23.1673721,143.928367 23.2383183,144.252365 23.006641,144.96468 C22.8463107,145.466456 22.7200505,145.804836 22.4719393,146.063315 C22.2438694,146.318598 21.9127873,146.453231 21.3432138,146.563893 C21.2870982,146.651784 21.2702635,146.733682 21.2538296,146.81558 C20.7548015,148.358863 20.4634011,149.629685 20.3383434,150.55893 C20.2325254,151.48458 20.3291245,151.984759 20.6437727,151.93602 C20.9387805,151.890876 21.2999246,151.478188 21.6754984,150.923278 C22.0707127,150.365171 22.7789719,149.369208 22.8106372,148.896995 C22.8507197,148.290948 23.2880207,148.459938 23.4752064,148.724809 C23.6431524,148.993275 23.701673,149.537799 23.4315164,150.276481 C23.1613598,151.035139 22.6058152,152.079042 21.9256137,152.960347 C21.2450115,153.842052 20.440554,154.561159 19.6136503,154.663432" id="Fill-64" fill="#FFFFFF" mask="url(#mask-2)"></path>
                    <path d="M28.8614638,153.292974 C28.2205433,153.398842 27.6577838,153.09522 27.3271025,152.438835 C26.9583427,151.749691 26.8224628,150.706986 26.9583427,149.307924 C27.036103,148.547669 27.2305035,147.867314 27.3271025,147.37912 C27.4245032,146.871351 27.4245032,146.556542 27.1723837,146.655619 C26.8805825,146.760689 26.5507029,147.501368 26.1815423,148.581627 C25.929022,149.329098 25.6769026,150.25315 25.4436219,151.213158 C25.3658617,151.599078 25.2881015,151.925872 25.2107421,152.330969 C24.9774615,153.350103 24.4920614,153.8355 23.7930212,153.934177 C23.2294601,154.013679 22.8991796,153.782766 22.7632996,152.97417 C22.60818,152.148795 22.6662998,150.782093 22.8410598,148.534086 C22.9384605,147.280043 23.1132206,145.996438 23.3461004,144.743195 C23.5597405,143.532299 23.8319013,142.391716 24.1421405,141.579924 C24.4531813,140.747758 24.7834618,140.20723 25.0941018,140.161287 C25.5017417,140.101361 26.1230217,140.184857 26.6477027,140.339066 C27.1723837,140.513249 27.5800236,140.782515 27.5603831,141.120895 C27.5603831,141.297875 27.3856231,141.877555 27.1527433,142.66218 C26.9194626,143.46678 26.6280623,144.476726 26.3370627,145.604525 C26.278943,145.790294 26.2593025,146.029996 26.2007819,146.216165 C27.1138632,144.836279 28.046184,143.91822 28.7255838,143.727257 C29.3468639,143.565857 29.8519044,143.677319 30.221065,143.948981 C30.5509446,144.266187 30.7257047,144.728413 30.7064651,145.3025 C30.6483453,146.13946 30.4735853,146.957244 30.2988252,147.735478 C30.1240651,148.512912 29.910425,149.199659 29.8130243,149.747378 C29.6775452,150.34144 29.6967848,150.574351 29.9296646,150.5348 C30.0847842,150.508833 30.395825,150.101339 30.7649856,149.506078 C31.1337454,148.949569 31.502906,148.215681 31.7943064,147.632406 C32.0464258,147.135024 32.3574667,147.079892 32.5125862,147.307609 C32.6873463,147.571282 32.7458669,148.131785 32.4352269,148.87686 C32.1827066,149.631123 31.6584264,150.669433 31.0371464,151.545545 C30.4154655,152.421656 29.6386651,153.164334 28.8614638,153.292974" id="Fill-65" fill="#FFFFFF" mask="url(#mask-2)"></path>
                    <path d="M34.6241768,147.360983 C34.7027387,147.287474 34.7624617,147.237137 34.8213831,147.167224 C35.1572751,146.790891 35.4142045,146.428142 35.5520886,146.028638 C35.6903735,145.687462 35.7500965,145.361467 35.7500965,145.144936 C35.769737,144.905233 35.7300553,144.75502 35.5721299,144.784184 C35.3544815,144.824534 35.1376347,145.140541 34.9793085,145.622343 C34.8213831,146.12372 34.7027387,146.736159 34.6241768,147.360983 M34.4462101,152.453457 C33.6758229,152.593683 32.8853944,152.302045 32.3126142,151.65405 C31.7398341,151.045206 31.3646612,150.145124 31.4436238,149.107613 C31.5225865,147.853571 32.0360444,146.367817 32.8657539,145.078618 C33.6954634,143.78942 34.7624617,142.789861 36.0066251,142.55735 C36.7774131,142.413529 37.4095155,142.588112 37.8043289,142.926092 C38.2187828,143.259678 38.3967495,143.796211 38.2981463,144.366702 C38.1398201,145.322715 37.3894742,146.412162 36.4804012,147.350995 C35.9080219,147.95105 35.2362378,148.489181 34.6241768,148.857524 C34.6438173,148.952206 34.6634577,149.066464 34.6830982,149.161546 C34.7821022,149.557055 35.0193911,149.769191 35.4142045,149.696082 C35.7893775,149.626568 36.4018393,149.138375 37.0143012,148.490779 C37.6263623,147.842784 38.2187828,147.059757 38.5546749,146.384196 C38.7919638,145.885616 39.1078145,145.824492 39.2657399,146.049412 C39.4441074,146.309889 39.5030288,146.869194 39.1867772,147.620261 C38.8905669,148.445635 38.2187828,149.521499 37.3694329,150.509871 C36.5204838,151.459092 35.5128077,152.258499 34.4462101,152.453457" id="Fill-66" fill="#FFFFFF" mask="url(#mask-2)"></path>
                    <path d="M17.4230971,159.710202 C17.4315145,158.636736 18.4115336,157.579649 19.4725196,156.999969 C20.3627537,156.538143 21.881082,156.107877 23.7296907,155.715964 C25.5987415,155.354014 27.664197,155.055984 29.703198,154.865421 C31.376245,154.728391 33.0545028,154.454331 34.4682155,154.163493 C35.9500686,153.825113 37.1357114,153.426009 37.8928713,152.989751 C38.1650321,152.800785 38.3117343,153.010924 38.3405938,153.413225 C38.3478087,153.785962 38.2243543,154.405592 37.8127062,155.046396 C37.4010581,155.687599 36.6779683,156.389128 35.6414327,156.929656 C33.9046544,157.844919 31.5958976,158.156133 28.0253411,158.252014 C26.2352529,158.292364 24.3108881,158.359081 22.5151884,158.53686 C20.7299102,158.729421 19.1719002,159.031445 18.134563,159.572373 C17.5485556,159.889979 17.3729939,159.856021 17.4230971,159.710202" id="Fill-67" fill="#FFFFFF" mask="url(#mask-2)"></path>
                </g>
            </g>
        </g>
    </g>
</svg>