<?xml version="1.0" encoding="UTF-8"?> <svg xmlns="http://www.w3.org/2000/svg" xmlns:xlink="http://www.w3.org/1999/xlink" width="231" height="92" viewBox="0 0 231 92"><defs><path id="wskw2qfc8a" d="M0 0h199v29H0z"></path></defs><g fill="none" fill-rule="evenodd"><path d="M115 2.5a2.5 2.5 0 1 1 5 0 2.5 2.5 0 0 1-5 0M114.582 37.69c1.282 0 2.372.985 2.372 2.2 0 1.215-1.06 2.2-2.37 2.2-.22.101-.018.68 1.076.68 1.799 0 2.63-1.69 2.803-2.629.56-3.03-1.832-4.697-2.858-5.126l.012-25.789h-4.212l.055 33.548h2.068c-.86-.71-1.318-1.807-1.318-2.861 0-1.235 1.072-2.224 2.372-2.224zm6.005-28.464V36.12c0 5.065-1.796 6.45-2.09 6.655h5.098l-.055-33.548h-2.953zM125.937 7 126 45h-16.938L109 7h16.937z" fill="#D98F2F"></path><path d="M8.981 79c-3.235 0-6.108-.37-8.57-1.355L0 77.473l.676-2.045.41.197c2.101.911 4.853 1.355 7.895 1.355 3.114 0 7.46-.542 7.46-3.055 0-2.07-3.549-2.316-7.122-2.612-5.722-.468-9.15-1.207-9.15-4.484C.169 62.69 6.494 62 9.995 62c2.608 0 5.77.295 7.991 1.133l.46.173-.58 2.07-.41-.148c-1.957-.764-4.612-1.208-7.316-1.208-2.897 0-7.388.345-7.388 2.514 0 1.552 1.86 1.97 6.712 2.39 5.722.467 9.536 1.108 9.536 4.68C19 77.916 13.061 79 8.981 79M42.722 64.27V79h-2.444V64.27H31V62h21v2.27h-9.278M77.738 81.976c-.197.024-.443.024-.566.024L77 80.164c.099.025.221 0 .32-.024 1.844-.367 3.123-1.689 3.123-3.916V61H83v15.2c0 3.45-2.066 5.506-5.262 5.776M107.988 79C103.662 79 98 77.61 98 72.424V62h2.503v10.076c0 3.35 3.718 4.69 7.485 4.69 3.766.025 7.485-1.34 7.485-4.69V62H118v10.424c0 5.161-5.638 6.576-10.012 6.576M132 79V62h2.533v14.654H150V79h-18M163 79h2V62h-2zM181 79V62h18v2.093h-15.478v4.389H199v2.093h-15.478v6.331H199V79h-18" fill="#FFFFFE"></path><g transform="translate(32 63)"><mask id="fe4q3ba0zb" fill="#fff"><use xlink:href="#wskw2qfc8a"></use></mask><path fill="#FFFFFE" mask="url(#fe4q3ba0zb)" d="M198.4 16.101 181.484 4.204v11.62h-2.471V0h.6l16.892 11.828V.254H199v15.847h-.6M146.16 26.096c-1.472-.12-1.995-.237-1.995-.658 0-.603 1.376-.694 2.196-.694.802 0 1.598.125 2.186.34l.123.043c.023-.012.197-.597.197-.597-.011-.02-.148-.07-.148-.07-.816-.29-1.951-.321-2.401-.321-.891 0-2.962.134-2.962 1.382 0 .906.929 1.144 2.758 1.285l.07.005c1.053.082 2.048.16 2.048.716 0 .764-1.551.847-2.218.847-.933 0-1.75-.132-2.359-.382l-.122-.055c-.025.01-.227.588-.227.588.01.02.133.07.133.07.686.258 1.528.384 2.575.384 1.46 0 3.02-.405 3.02-1.542 0-1.039-1.191-1.21-2.874-1.34zm-53.156 2.27c-1.511 0-2.45-.697-2.45-1.82 0-1.12.939-1.815 2.45-1.815 1.514 0 2.456.695 2.456 1.814 0 1.124-.942 1.822-2.456 1.822zm0-4.29c-1.583 0-3.274.65-3.274 2.47 0 1.82 1.691 2.468 3.274 2.468 1.585 0 3.28-.649 3.28-2.469 0-1.82-1.695-2.469-3.28-2.469zm-41.64.724.019-.595-5.335-.017-.018 4.711v.018h5.335l.018-.596-4.59-.017.018-1.731 4.554.017.018-.595-4.59-.017.018-1.195 4.554.017zm34.453 1.174-4.424-.017.018-1.752-.763-.017-.018 4.711.763.018.018-2.323 4.423.017-.017 2.306h.77l.018-4.712-.77-.017-.018 1.786zm70.44.596h-3.27l.018-1.752 3.195.017c.652 0 1.074.327 1.074.833 0 .53-.418.902-1.017.902zm.087-2.382h-4.102l-.017 4.711.762.018.018-1.703 3.368.017c1.003 0 1.703-.646 1.703-1.57 0-.91-.663-1.473-1.732-1.473zm-92.547.017-.001-.005.11.005h-.11zm.534-.004-.553-.013c-.017.022-.003.066-.003.066.037.115.087.272.087.515 0 .364-.158.645-.43 1.007.003.024.314.233.314.233l.014.01.01-.013c.31-.353.641-.776.641-1.335l-.059-.386-.02-.084zm-8.857 2.09.018-1.46 3.237.018c.565 0 .93.264.93.672 0 .608-.544.77-.865.77h-3.32zm2.954.698-.148-.145h.014c.017.023.063.072.134.145zm1.918 1.91a.377.377 0 0 0 .013.012l-.423-.012h.41zm-1.378-2.037c.862 0 1.464-.563 1.464-1.369 0-.963-.812-1.305-1.573-1.305h-4.13l-.018 4.711.763.018.018-1.989 1.899.017c0 .008 1.933 1.966 1.933 1.966l.005.006h1.042l-.013-.018h.013l-.147-.144c-.45-.467-1.812-1.805-1.918-1.91h.266l.396.017zm11.445-.766c-1.472-.12-1.994-.237-1.994-.658 0-.603 1.375-.694 2.196-.694.801 0 1.598.125 2.185.34l.123.043c.023-.012.197-.597.197-.597-.011-.02-.148-.07-.148-.07-.816-.29-1.951-.321-2.4-.321-.892 0-2.963.134-2.963 1.382 0 .906.929 1.144 2.758 1.285l.07.005c1.053.082 2.048.16 2.048.716 0 .764-1.55.847-2.218.847-.933 0-1.749-.132-2.358-.382l-.123-.055c-.024.01-.227.588-.227.588.01.02.133.07.133.07.686.258 1.528.384 2.575.384 1.46 0 3.02-.405 3.02-1.542 0-1.039-1.191-1.21-2.874-1.34zm-30.796 2.166h-2.43l.017-3.437 2.413.017c1.584 0 2.492.605 2.492 1.661 0 1.102-.931 1.76-2.492 1.76zm.101-4.074h-3.284l-.018 4.711 3.31.018c1.54 0 3.186-.636 3.186-2.42 0-1.468-1.164-2.31-3.194-2.31zm77.675.017-.763-.017-.018 4.711v.018h5.313l.018-.666-4.568-.017.018-4.03zm12.504 2.209c.017-.006.054-.02.115-.046l-.115.052v-.006zm0-.048.018-.092c.04-1.04.878-1.71 2.137-1.71.503 0 .936.107 1.29.319l-.163.072c-.69.29-3.213 1.415-3.282 1.446v-.035zm3.465-1.492-.011.005c-.047-.032-.098-.057-.148-.084.053.026.108.048.159.079zm1.075.056.004.004a.781.781 0 0 0-.1.04l.096-.044zm-1.748 1.502c-.009.022.208.475.208.475.023.009 1.437-.628 1.475-.644.005.015.007.033.012.048.028.143.052.305.052.47 0 1.096-1.133 1.67-2.253 1.67-.99 0-2.059-.466-2.21-1.504.006.01 4.489-2.009 4.489-2.009l-.014-.013.006-.003c-.046-.045-.094-.084-.142-.126-.033-.03-.066-.06-.1-.087l-.007-.006c-.53-.43-1.205-.634-2.051-.634-1.387 0-3.006.645-3.006 2.462 0 1.49 1.217 2.49 3.027 2.49 1.5 0 3.02-.755 3.035-2.441 0-.223-.04-.442-.107-.624l1.283-.58v-.001c0-.04-.208-.488-.208-.488-.024-.008-3.49 1.545-3.49 1.545zM166.55 28.9h.318a.19.19 0 0 0 .007.01l-.325-.01zm-1.615-1.664a1.877 1.877 0 0 0-.067-.11l.075.11h-.008zm-1.108 0-1.997-.017.074-.108c.317-.428 1.413-2.012 1.484-2.115l1.534 2.24h-1.095zm-2.009 0 .006-.01 1.092.01h-1.098zm-1.92 1.647h-.011c.004 0 .063-.083.16-.223l-.149.223zm6.992.017-.152-.226c-.627-.969-3.002-4.52-3.002-4.52l-.688-.007c-.015.008-3.176 4.744-3.176 4.744h.02l-.005.01h.316l.603.017c.015-.008.745-1.095.745-1.095l3.674.008c0 .014.716 1.079.716 1.079l.005.008h.944a.06.06 0 0 0-.009-.018h.009zM4.018 28.29H.763l.018-1.71 3.172.017c.872 0 1.371.288 1.371.79 0 .62-.677.903-1.306.903zM.781 24.797l3.194.017c.218 0 .93.041.93.568 0 .396-.468.61-.908.61H.763l.018-1.195zm4.202 1.384c.08.02.16.045.24.074a1.924 1.924 0 0 0-.264-.065l.024-.009zm.006-.002c.07-.02.136-.047.199-.08a.87.87 0 0 0 .526-.808c0-.813-.809-1.103-1.565-1.103H.018L0 28.899l4.149.018c.912 0 1.978-.41 1.978-1.564 0-.601-.436-1.048-1.138-1.174zm93.56-1.347 2.846.017-.018 4.05.763.018.018-4.068h2.81l.018-.644-6.42-.017-.017.644zm-69.722-.627-.763-.017-.018 4.711v.018h5.314l.018-.666-4.568-.017.017-4.03zm-4.962 2.828a.998.998 0 0 1-.321.746c-.373.357-1.061.558-1.889.553-1.068 0-2.21-.342-2.21-1.3v-2.827l-.763-.017-.018 2.942c0 1.729 2.29 1.863 2.991 1.863.703 0 2.998-.134 2.998-1.863v-2.925l-.77-.017-.018 2.845zm-11.578 1.334c-1.51 0-2.449-.698-2.449-1.822 0-1.119.938-1.814 2.45-1.814 1.514 0 2.455.695 2.455 1.814 0 1.124-.94 1.822-2.456 1.822zm0-4.29c-1.582 0-3.273.648-3.273 2.468 0 1.82 1.69 2.469 3.273 2.469 1.586 0 3.28-.649 3.28-2.469 0-1.82-1.694-2.469-3.28-2.469zm100.979.723.018-.595-5.335-.017-.018 4.711v.018h5.335l.018-.596-4.59-.017.018-1.731 4.554.017.018-.595-4.59-.017.018-1.195 4.554.017z"></path></g></g></svg> 